<svg width="216" height="216" viewBox="0 0 216 216" fill="none" xmlns="http://www.w3.org/2000/svg">
<path d="M26.2992 0.601107C24.3829 1.60418 1.77952 24.2387 0.777829 26.1576C-0.0496558 27.7713 -0.0496558 29.5158 0.0374478 119.792L0.168103 211.813L1.08269 212.991C1.56176 213.645 2.5199 214.604 3.17318 215.084C4.34908 216 4.43618 216 66.1491 216C127.862 216 127.949 216 129.125 215.084C129.778 214.604 130.736 213.645 131.216 212.991C132.087 211.857 132.13 211.159 132.261 196.549L132.391 181.329H148.985H165.621L171.98 187.652C175.725 191.359 178.992 194.238 179.95 194.63C182.04 195.502 184.436 195.459 186.57 194.456C190.141 192.798 191.578 190.095 191.578 184.818V181.329H199.243C204.034 181.329 207.605 181.111 208.738 180.805C211.133 180.107 214.748 176.488 215.445 174.089C216.185 171.56 216.185 121.362 215.445 118.876C215.183 117.917 214.095 116.172 213.049 115.039C209.739 111.332 212.178 111.55 169.715 111.55H132.348V97.5938V83.6381H137.574H142.8V87.2142C142.844 92.5785 144.368 95.326 148.114 96.9397C150.161 97.7683 152.425 97.7683 154.429 96.9397C155.387 96.5472 158.653 93.6688 162.399 89.9618L168.757 83.6381H187.833C201.552 83.6381 207.431 83.5072 208.738 83.1147C211.133 82.4169 214.748 78.7971 215.445 76.3985C216.185 73.869 216.185 23.6718 215.445 21.1859C215.183 20.2264 214.095 18.482 213.049 17.3481C209.739 13.641 212.178 13.8591 169.759 13.8591H132.435L132.261 9.10542C132.13 3.95922 131.738 2.95615 129.125 1.03723C127.949 0.121376 127.688 0.121376 77.7774 0.0341528C32.9191 -0.0530709 27.4751 -0.00945907 26.2992 0.601107ZM125.38 10.7627V14.6441L124.073 15.1675C122.244 15.9089 119.544 19.0925 118.934 21.1859C118.194 23.6282 118.194 73.869 118.934 76.3113C119.544 78.4046 122.244 81.5883 124.073 82.3297L125.38 82.853V97.5938V112.335L124.073 112.858C122.244 113.599 119.544 116.783 118.934 118.876C118.194 121.319 118.194 171.56 118.934 174.002C119.544 176.095 122.244 179.279 124.073 180.02L125.38 180.544V194.892V209.24H66.1491H6.91863V120.272V31.3038H19.1131H31.3077V19.0925V6.88121H78.3436H125.38V10.7627ZM24.3394 18.2203V24.3259H18.155H11.9271L18.0243 18.2203C21.3778 14.8622 24.1652 12.1146 24.2087 12.1146C24.2958 12.1146 24.3394 14.8622 24.3394 18.2203ZM207.91 21.9273L208.999 22.974V48.7486V74.5232L207.91 75.5699L206.865 76.6602H186.265H165.665L158.61 83.7253C149.725 92.5785 150.03 92.6221 149.856 83.2455L149.725 76.6602H138.619H127.514L126.468 75.5699L125.38 74.5232V48.7486V22.974L126.468 21.9273L127.514 20.837H167.189H206.865L207.91 21.9273ZM207.91 119.618L208.999 120.665V146.439V172.214L207.91 173.26L206.865 174.351H195.759H184.654L184.523 180.936C184.349 190.313 184.654 190.269 175.769 181.416L168.714 174.351H148.114H127.514L126.468 173.26L125.38 172.214V146.439V120.665L126.468 119.618L127.514 118.528H167.189H206.865L207.91 119.618Z" fill="#687EA6"/>
<path d="M59.3986 21.2731C53.5627 22.189 45.5056 25.3727 40.4971 28.818C37.5792 30.7805 31.5255 36.7553 29.3479 39.8082C19.5923 53.4587 18.1986 71.3831 25.7331 86.4292C28.0413 91.0957 29.5656 93.2327 33.3982 97.245C47.509 112.029 68.4574 115.693 86.6621 106.534C91.2785 104.223 94.632 101.693 98.5953 97.5503C102.646 93.3199 104.17 91.2265 106.435 86.6909C110.877 77.8377 112.358 68.5484 110.79 58.9974C107.915 41.1165 94.5885 26.681 76.8193 22.1018C72.8126 21.0987 63.536 20.6626 59.3986 21.2731ZM72.8997 28.4691C87.446 30.9986 99.3792 42.1196 103.212 56.5987C105.564 65.5828 104.475 75.0029 100.032 83.8125L98.5517 86.7781L96.3741 84.0742C93.4997 80.4544 88.1428 76.2241 83.6134 73.9562C81.5665 72.9532 79.7809 72.0373 79.6938 71.9937C79.6067 71.9501 80.4777 70.8598 81.61 69.5951C92.1496 57.8635 86.4879 39.4593 71.0705 35.447C60.2261 32.6122 48.8155 39.5465 45.8976 50.7984C44.199 57.3401 46.1153 64.7105 50.7754 69.7259C51.8642 70.9034 52.6916 71.9065 52.6045 71.9937C52.5174 72.0373 50.7318 72.9532 48.6849 73.9562C44.1555 76.2241 38.7986 80.4544 35.9242 84.0742L33.7466 86.7781L32.3529 84.0306C24.5136 68.7228 27.1703 51.1036 39.147 39.154C48.1187 30.17 60.3568 26.2885 72.8997 28.4691ZM72.7255 43.5588C75.6435 45.1288 76.9936 46.5244 78.6921 49.7953C79.6502 51.6706 79.8244 52.5864 79.8244 55.7265C79.868 59.1282 79.7373 59.6516 78.3872 62.181C76.7322 65.2339 75.3386 66.5422 72.0722 68.2867C70.1995 69.2462 69.2849 69.4206 66.1492 69.4206C63.0134 69.4206 62.0988 69.2462 60.2261 68.2867C56.9597 66.5422 55.5661 65.2339 53.9111 62.181C52.561 59.6516 52.4303 59.1282 52.4739 55.7265C52.4739 51.3653 53.5191 48.7486 56.35 45.9138C60.7052 41.5526 67.1944 40.6368 72.7255 43.5588ZM70.9399 77.0963C74.6418 77.7941 76.6887 78.4047 76.5145 78.8408C76.4274 79.0152 74.0756 81.3703 71.2447 84.0742L66.1492 88.9587L61.01 84.0742C58.2227 81.3703 55.8709 79.0152 55.7838 78.8408C55.6967 78.5791 59.0067 77.5324 62.0117 76.9219C63.7538 76.573 68.7187 76.6602 70.9399 77.0963ZM57.5259 90.4851L66.1492 99.1203L74.816 90.4415L83.4828 81.7628L85.6168 83.3328C88.8832 85.7751 93.5868 91.2265 93.5868 92.6221C93.5868 93.6252 86.7056 98.7714 82.9166 100.603C77.2113 103.394 73.0303 104.31 66.1492 104.31C59.2244 104.31 54.9999 103.351 49.4253 100.603C46.1589 98.9894 40.41 94.9335 39.1035 93.4071C38.4066 92.5785 38.8857 91.5318 41.5424 88.3045C43.2845 86.1239 48.0316 81.8936 48.7284 81.8936C48.8591 81.8936 52.8223 85.7751 57.5259 90.4851Z" fill="#687EA6"/>
<path d="M13.887 132.483V146.439H52.2126H90.5381V132.483V118.527H52.2126H13.887V132.483ZM83.5699 132.483V139.461H52.2126H20.8553V132.483V125.505H52.2126H83.5699V132.483Z" fill="#687EA6"/>
<path d="M13.887 156.906V160.395H52.2126H90.5381V156.906V153.417H52.2126H13.887V156.906Z" fill="#687EA6"/>
<path d="M13.887 170.862V174.351H59.1808H104.475V170.862V167.373H59.1808H13.887V170.862Z" fill="#687EA6"/>
<path d="M13.887 184.817V188.306H59.1808H104.475V184.817V181.329H59.1808H13.887V184.817Z" fill="#687EA6"/>
<path d="M13.887 198.773V202.262H24.3394H34.7918V198.773V195.284H24.3394H13.887V198.773Z" fill="#687EA6"/>
<path d="M41.76 198.773V202.262H52.2124H62.6649V198.773V195.284H52.2124H41.76V198.773Z" fill="#687EA6"/>
<path d="M69.6333 198.773V202.262H80.0857H90.5382V198.773V195.284H80.0857H69.6333V198.773Z" fill="#687EA6"/>
<path d="M174.811 44.9979L156.955 61.3087L153.035 57.4273C150.857 55.2903 148.898 53.5458 148.636 53.5458C148.07 53.5458 144.107 57.5581 144.107 58.1251C144.107 58.3867 146.894 61.396 150.335 64.7977L156.606 71.0342L176.814 52.63C187.92 42.512 197.066 34.1386 197.109 33.9641C197.153 33.8333 196.195 32.5685 194.932 31.2166L192.667 28.6871L174.811 44.9979Z" fill="#687EA6"/>
<path d="M149.638 128.907C148.506 130.041 147.591 131.175 147.591 131.393C147.591 131.611 150.857 135.1 154.864 139.112L162.181 146.439L154.777 153.853L147.373 161.267L149.899 163.753L152.382 166.282L159.786 158.868L167.189 151.454L174.593 158.868L181.997 166.282L184.479 163.753L187.005 161.267L179.602 153.853L172.198 146.439L179.515 139.112C183.521 135.1 186.788 131.611 186.788 131.393C186.788 130.826 182.781 126.814 182.215 126.814C181.997 126.814 178.513 130.085 174.506 134.097L167.189 141.424L159.873 134.097C155.866 130.085 152.382 126.814 152.164 126.814C151.903 126.814 150.77 127.773 149.638 128.907Z" fill="#687EA6"/>
</svg>
