<svg width="35" height="39" viewBox="0 0 35 39" fill="none" xmlns="http://www.w3.org/2000/svg">
<path d="M0 38.1461V3.81461C0 2.76559 0.343 1.86725 1.029 1.11959C1.71383 0.373196 2.5375 0 3.5 0H31.5C32.4625 0 33.2868 0.373196 33.9728 1.11959C34.6576 1.86725 35 2.76559 35 3.81461V26.7022C35 27.7513 34.6576 28.6496 33.9728 29.3973C33.2868 30.1437 32.4625 30.5169 31.5 30.5169H7L0 38.1461ZM16.1875 24.7949H18.8125V5.72191H16.1875V24.7949ZM11.375 20.9803H14V9.53652H11.375V20.9803ZM7 17.1657H9.625V13.3511H7V17.1657ZM21 20.9803H23.625V9.53652H21V20.9803ZM25.375 17.1657H28V13.3511H25.375V17.1657Z" fill="#15336A"/>
</svg>
