<svg width="34" height="34" viewBox="0 0 34 34" fill="none" xmlns="http://www.w3.org/2000/svg">
<path d="M31.575 33.5C27.6333 33.5 23.7913 32.6212 20.0488 30.8637C16.3052 29.1073 12.9899 26.7851 10.103 23.897C7.21489 21.0101 4.89267 17.6948 3.13633 13.9512C1.37878 10.2087 0.5 6.36667 0.5 2.425C0.5 1.875 0.683333 1.41667 1.05 1.05C1.41667 0.683333 1.875 0.5 2.425 0.5H9.85C10.2778 0.5 10.6597 0.6375 10.9958 0.9125C11.3319 1.1875 11.5306 1.53889 11.5917 1.96667L12.7833 8.38333C12.8444 8.81111 12.8371 9.20039 12.7613 9.55117C12.6843 9.90317 12.5083 10.2167 12.2333 10.4917L7.83333 14.9833C9.11667 17.1833 10.7208 19.2458 12.6458 21.1708C14.5708 23.0958 16.6944 24.7611 19.0167 26.1667L23.325 21.8583C23.6 21.5833 23.9593 21.3768 24.403 21.2387C24.8454 21.1018 25.2806 21.0639 25.7083 21.125L32.0333 22.4083C32.4611 22.5 32.8125 22.7059 33.0875 23.0262C33.3625 23.3476 33.5 23.7222 33.5 24.15V31.575C33.5 32.125 33.3167 32.5833 32.95 32.95C32.5833 33.3167 32.125 33.5 31.575 33.5Z" fill="#2862CC"/>
</svg>
