<svg width="294" height="304" viewBox="0 0 294 304" fill="none" xmlns="http://www.w3.org/2000/svg">
<path d="M17.9813 0.755089C13.3649 2.03065 10.5728 3.69273 7.07337 7.32614C3.49946 11.0368 1.9731 13.7812 0.744565 18.7675C0 21.7051 0 23.2899 0 116.135C0 208.825 0 210.565 0.744565 213.502C2.82935 221.968 8.78587 228.461 17.125 231.399C19.0981 232.056 22.5976 232.095 101.373 232.211C146.568 232.249 183.535 232.172 183.535 232.056C183.535 231.901 183.051 230.974 182.456 230.007C179.515 225.253 175.866 215.783 174.898 210.372L174.489 207.936L99.0644 207.859L23.6399 207.743L23.5283 116.019L23.4538 24.3336H147.052H270.65V84.9805V145.627L272.399 147.096C282.525 155.561 289.859 167.119 293.508 180.299C293.954 182 294.029 172.028 293.992 101.06L293.917 19.8884L292.875 16.7962C290.753 10.5344 286.546 5.54809 280.999 2.68775C275.229 -0.249895 286.844 -0.0179753 146.679 0.0206779C24.1611 0.0206779 20.5872 0.0593311 17.9813 0.755089Z" fill="#2862CC"/>
<path d="M60.5334 69.5959L59.5654 70.3689V77.9063C59.5654 84.9026 59.6027 85.4437 60.31 86.1781C61.0546 86.9512 61.5385 86.9512 147.238 86.9512H233.459L234.352 85.9848C235.283 85.0572 235.283 84.9799 235.283 77.8677C235.283 70.7555 235.283 70.6782 234.352 69.7505L233.459 68.7842H147.499H61.5385L60.5334 69.5959Z" fill="#2862CC"/>
<path d="M60.3845 107.941C59.6027 108.791 59.5654 109.178 59.5654 116.174C59.5654 123.363 59.6027 123.557 60.4217 124.368L61.2779 125.219H147.387H233.459L234.352 124.252C235.283 123.325 235.283 123.247 235.283 116.135C235.283 109.023 235.283 108.946 234.352 108.018L233.459 107.052H147.312H61.1662L60.3845 107.941Z" fill="#2862CC"/>
<path d="M60.31 146.092C59.6027 146.827 59.5654 147.368 59.5654 154.364V161.902L60.5334 162.675C61.5385 163.486 61.613 163.486 103.16 163.486C132.868 163.486 145.042 163.37 145.674 163.061C147.201 162.327 147.424 161.206 147.424 154.055C147.424 147.87 147.35 147.291 146.642 146.324L145.898 145.319H103.458C61.5385 145.319 61.0546 145.319 60.31 146.092Z" fill="#2862CC"/>
<path d="M229.885 151.89C211.27 154.093 196.044 168.24 192.061 187.103C189.045 201.482 192.954 216.402 202.745 227.612C211.829 238.048 227.092 243.614 240.681 241.449C268.937 236.927 285.355 206.893 274.596 179.45C269.309 165.998 257.247 155.639 243.361 152.663C239.378 151.774 233.458 151.465 229.885 151.89ZM238.41 176.898C240.42 180.686 242.282 184.049 242.579 184.397C242.914 184.784 245.781 185.518 250.919 186.523C255.982 187.489 258.736 188.185 258.662 188.456C258.588 188.726 256.168 191.548 253.264 194.795C248.424 200.129 247.94 200.825 247.94 202.1C247.94 203.376 249.169 214.392 249.616 216.905C249.69 217.523 249.616 217.987 249.392 217.987C249.206 217.987 245.781 216.402 241.798 214.469L234.538 210.913L227.092 214.508C222.997 216.479 219.572 218.026 219.461 217.948C219.386 217.832 219.684 214.353 220.205 210.218C220.726 206.082 221.136 202.294 221.136 201.753C221.136 201.057 219.647 199.124 215.552 194.602C212.499 191.2 210.116 188.301 210.265 188.185C210.414 188.069 213.951 187.296 218.158 186.484C222.364 185.673 225.976 184.861 226.236 184.668C226.497 184.436 227.986 181.807 229.549 178.831C233.421 171.41 234.203 170.057 234.501 170.057C234.65 170.057 236.437 173.149 238.41 176.898Z" fill="#2862CC"/>
<path d="M203.825 252.312C203.453 253.356 203.639 299.701 204.048 301.17C204.458 302.716 205.649 303.412 206.766 302.755C207.101 302.562 212.536 297.305 218.902 291.043C225.306 284.781 231.039 279.331 231.672 278.944C233.161 278.094 235.841 278.133 237.367 278.983C238 279.331 243.771 284.82 250.174 291.159C256.577 297.459 262.236 302.755 262.72 302.871C263.316 303.025 263.874 302.871 264.321 302.446C265.028 301.75 265.065 301.093 265.065 276.741V251.733L261.529 253.549C256.875 255.984 252.817 257.492 247.382 258.767C241.425 260.198 232.044 260.546 225.641 259.579C219.907 258.69 213.653 256.68 208.404 254.013C205.165 252.39 203.974 251.926 203.825 252.312Z" fill="#2862CC"/>
</svg>
