<svg width="60" height="74" viewBox="0 0 60 74" fill="none" xmlns="http://www.w3.org/2000/svg">
<path d="M40.2078 0.843897C37.0838 1.6719 35.7198 2.7759 34.3998 5.5359C33.4318 7.5599 33.2998 8.3419 33.2998 13.7699C33.2998 18.4619 33.4758 20.2099 34.0918 21.9119C35.3678 25.3619 38.3158 27.3399 42.2318 27.3399C43.4638 27.3399 43.6398 27.4779 43.6398 28.5359C43.6398 29.2259 43.1118 30.2839 42.3638 31.0659C41.2198 32.2159 41.1758 32.3999 41.9238 32.3999C43.3758 32.3999 46.6758 30.5139 48.0398 28.9039C48.8758 27.8459 49.7118 27.3399 50.5038 27.3399C52.6158 27.3399 55.2118 26.2359 56.6638 24.7179C58.5998 22.6939 59.1718 19.7499 58.9958 12.6199C58.7758 5.2599 58.1598 3.7879 54.4638 1.8559C52.1758 0.659897 51.3838 0.475897 47.2038 0.337898C44.2998 0.291897 41.6598 0.475897 40.2078 0.843897ZM47.1158 5.6739C47.5998 5.9959 47.6878 7.0999 47.5118 10.9639C47.2478 15.9779 46.6758 17.6799 45.6198 16.7599C44.8278 16.0699 44.2558 6.8239 44.9598 5.9499C45.5758 5.1679 46.2358 5.0759 47.1158 5.6739ZM47.3798 20.6699C47.3798 21.8199 47.2038 22.0959 46.1918 22.1879C45.3558 22.2799 44.9598 22.0959 44.7398 21.3599C44.3878 20.1179 45.2678 18.9679 46.4558 19.1519C47.1598 19.2439 47.3798 19.6119 47.3798 20.6699Z" fill="#2862CC"/>
<path d="M18.3401 22.004C8.83605 26.696 10.2441 41.37 20.4521 43.946C28.5921 45.97 35.9401 38.288 34.0041 29.778C32.3321 22.602 24.7201 18.83 18.3401 22.004Z" fill="#2862CC"/>
<path d="M12.18 45.372C9.53996 46.844 6.06396 50.892 4.30396 54.618C2.71996 58.022 0.959961 64.186 0.959961 66.44C0.959961 69.292 3.99596 71.316 10.244 72.742C15.304 73.892 31.276 73.892 36.072 72.742C40.912 71.638 43.904 70.028 44.784 68.188C45.444 66.716 45.4 66.348 44.564 62.53C42.804 54.894 38.8 48.316 34.18 45.51L32.332 44.36L29.56 45.832C27.096 47.166 26.392 47.35 23.224 47.35C19.66 47.35 19.396 47.258 14.16 44.498C14.028 44.452 13.148 44.82 12.18 45.372Z" fill="#2862CC"/>
</svg>
