<svg width="261" height="284" viewBox="0 0 261 284" fill="none" xmlns="http://www.w3.org/2000/svg">
<path d="M66.6833 27.0337V53.8911L130.394 106.899C165.222 135.877 194.316 159.377 194.953 159.023C196.652 157.256 221.712 122.271 221.712 121.211C221.712 120.681 209.395 119.974 194.104 119.798L166.709 119.267L208.545 61.8423C231.693 30.2142 251.231 3.35689 252.08 2.12003C253.567 0.5298 234.666 -0.000289917 160.338 -0.000289917H66.6833V27.0337Z" fill="#2862CC"/>
<path d="M5.09683 32.6888L0 37.2829L33.3417 65.0237L66.6835 92.7645V130.4V167.859H83.6729H100.662V226.521C100.662 276.348 101.087 284.83 103.635 282.709C105.122 281.296 121.474 259.386 139.95 234.119C158.426 208.852 174.354 187.472 175.203 186.412C176.478 185.352 190.919 196.13 213.217 214.683L249.32 244.72L255.054 239.773L261 235.002L136.765 131.637C68.3824 74.7418 11.8926 28.2715 11.2555 28.2715C10.6184 28.2715 7.85761 30.2151 5.09683 32.6888Z" fill="#2862CC"/>
</svg>
