<svg width="46" height="45" viewBox="0 0 46 45" fill="none" xmlns="http://www.w3.org/2000/svg">
<path d="M4.10632 27.0936C3.06388 27.0936 2.17821 26.6604 1.44934 25.7938C0.718789 24.9293 0.353516 23.8787 0.353516 22.6422C0.353516 21.4057 0.718789 20.3552 1.44934 19.4906C2.17821 18.6241 3.06388 18.1908 4.10632 18.1908C5.14877 18.1908 6.03443 18.6241 6.76331 19.4906C7.49386 20.3552 7.85913 21.4057 7.85913 22.6422C7.85913 23.8787 7.49386 24.9293 6.76331 25.7938C6.03443 26.6604 5.14877 27.0936 4.10632 27.0936ZM4.10632 9.28805C3.06388 9.28805 2.17821 8.85478 1.44934 7.98824C0.718789 7.12368 0.353516 6.07315 0.353516 4.83665C0.353516 3.60015 0.718789 2.54962 1.44934 1.68506C2.17821 0.818524 3.06388 0.385254 4.10632 0.385254C5.14877 0.385254 6.03443 0.818524 6.76331 1.68506C7.49386 2.54962 7.85913 3.60015 7.85913 4.83665C7.85913 6.07315 7.49386 7.12368 6.76331 7.98824C6.03443 8.85478 5.14877 9.28805 4.10632 9.28805ZM4.10632 44.8992C3.06388 44.8992 2.17821 44.466 1.44934 43.5994C0.718789 42.7349 0.353516 41.6843 0.353516 40.4478C0.353516 39.2113 0.718789 38.1608 1.44934 37.2962C2.17821 36.4297 3.06388 35.9964 4.10632 35.9964C5.14877 35.9964 6.03443 36.4297 6.76331 37.2962C7.49386 38.1608 7.85913 39.2113 7.85913 40.4478C7.85913 41.6843 7.49386 42.7349 6.76331 43.5994C6.03443 44.466 5.14877 44.8992 4.10632 44.8992ZM15.3648 43.4154C14.6559 43.4154 14.0621 43.1305 13.5834 42.5608C13.1031 41.993 12.8629 41.2886 12.8629 40.4478C12.8629 39.607 13.1031 38.9027 13.5834 38.3349C14.0621 37.7651 14.6559 37.4802 15.3648 37.4802H42.8854C43.5942 37.4802 44.188 37.7651 44.6667 38.3349C45.147 38.9027 45.3872 39.607 45.3872 40.4478C45.3872 41.2886 45.147 41.993 44.6667 42.5608C44.188 43.1305 43.5942 43.4154 42.8854 43.4154H15.3648ZM15.3648 25.6098C14.6559 25.6098 14.0621 25.3249 13.5834 24.7552C13.1031 24.1874 12.8629 23.4831 12.8629 22.6422C12.8629 21.8014 13.1031 21.0961 13.5834 20.5263C14.0621 19.9585 14.6559 19.6746 15.3648 19.6746H42.8854C43.5942 19.6746 44.188 19.9585 44.6667 20.5263C45.147 21.0961 45.3872 21.8014 45.3872 22.6422C45.3872 23.4831 45.147 24.1874 44.6667 24.7552C44.188 25.3249 43.5942 25.6098 42.8854 25.6098H15.3648ZM15.3648 7.80425C14.6559 7.80425 14.0621 7.52035 13.5834 6.95255C13.1031 6.38277 12.8629 5.67747 12.8629 4.83665C12.8629 3.99583 13.1031 3.29053 13.5834 2.72075C14.0621 2.15295 14.6559 1.86905 15.3648 1.86905H42.8854C43.5942 1.86905 44.188 2.15295 44.6667 2.72075C45.147 3.29053 45.3872 3.99583 45.3872 4.83665C45.3872 5.67747 45.147 6.38277 44.6667 6.95255C44.188 7.52035 43.5942 7.80425 42.8854 7.80425H15.3648Z" fill="#687EA6"/>
</svg>
