<svg width="21" height="16" viewBox="0 0 21 16" fill="none" xmlns="http://www.w3.org/2000/svg">
<path d="M9.06595 15.7416C8.74486 15.7416 8.4759 15.6157 8.25908 15.3638C8.04149 15.1128 7.9327 14.8015 7.9327 14.4298C7.9327 14.0581 8.04149 13.7468 8.25908 13.4958C8.4759 13.2439 8.74486 13.118 9.06595 13.118H11.3324C11.6535 13.118 11.9229 13.2439 12.1404 13.4958C12.3573 13.7468 12.4657 14.0581 12.4657 14.4298C12.4657 14.8015 12.3573 15.1128 12.1404 15.3638C11.9229 15.6157 11.6535 15.7416 11.3324 15.7416H9.06595ZM1.13324 2.6236C0.812158 2.6236 0.543201 2.4981 0.326374 2.24711C0.108791 1.99525 0 1.68348 0 1.3118C0 0.940124 0.108791 0.628353 0.326374 0.376487C0.543201 0.125496 0.812158 0 1.13324 0H19.2651C19.5862 0 19.8552 0.125496 20.072 0.376487C20.2896 0.628353 20.3984 0.940124 20.3984 1.3118C20.3984 1.68348 20.2896 1.99525 20.072 2.24711C19.8552 2.4981 19.5862 2.6236 19.2651 2.6236H1.13324ZM4.53297 9.1826C4.21189 9.1826 3.94255 9.05667 3.72497 8.8048C3.50814 8.55381 3.39973 8.24248 3.39973 7.8708C3.39973 7.49913 3.50814 7.18735 3.72497 6.93549C3.94255 6.6845 4.21189 6.559 4.53297 6.559H15.8654C16.1865 6.559 16.4554 6.6845 16.6723 6.93549C16.8899 7.18735 16.9986 7.49913 16.9986 7.8708C16.9986 8.24248 16.8899 8.55381 16.6723 8.8048C16.4554 9.05667 16.1865 9.1826 15.8654 9.1826H4.53297Z" fill="#A3B4D4"/>
</svg>
