<svg width="287" height="267" viewBox="0 0 287 267" fill="none" xmlns="http://www.w3.org/2000/svg">
<path d="M69.6065 2.52535C60.6367 5.44964 54.8437 9.70316 50.9194 16.2164C46.6214 23.5271 47.182 26.3185 53.3487 27.5148C61.7579 29.2427 141.926 28.844 146.224 26.9831C150.148 25.388 149.401 25.1222 128.284 23.2612C120.622 22.5966 119.501 22.0649 118.567 18.8748C115.764 9.03855 99.5059 -0.00017169 84.7431 -0.00017169C80.4451 -0.00017169 73.7177 1.19613 69.6065 2.52535Z" fill="#2862CC"/>
<path d="M48.8642 31.2356C46.6218 35.2233 49.6117 45.1925 54.2835 50.3764C62.8796 59.5481 82.501 63.6687 97.2639 59.2822C105.486 56.8896 114.83 49.0472 117.259 42.4011C120.997 32.4319 121.744 32.6977 88.6678 31.7673C72.5969 31.2356 57.0865 30.4381 54.6572 30.0393C51.2935 29.3747 49.6117 29.7735 48.8642 31.2356Z" fill="#2862CC"/>
<path d="M41.2022 70.5825C25.3181 76.1652 10.5553 90.7867 4.38854 107.136C-2.33883 124.416 -1.03073 163.229 6.25725 169.078C10.5553 172.268 20.4595 172.268 24.5706 168.945C27.5606 166.552 27.7474 164.957 25.8787 150.469C23.0757 128.005 26.0656 112.054 35.7829 99.0279L39.7072 93.711L40.6416 175.857L41.5759 258.136L47.7427 261.991C56.3387 267.573 65.1217 267.308 73.5309 261.326L79.8845 256.807V208.822C79.8845 161.767 79.8845 160.837 83.622 160.837C87.3594 160.837 87.3594 161.767 87.3594 208.822V256.807L93.713 261.326C103.804 268.504 116.885 266.909 123.239 257.87C126.415 253.617 126.602 246.97 126.602 178.382V103.414L137.441 110.326C151.269 119.232 172.012 127.872 188.457 131.594C205.088 135.449 207.704 134.252 200.79 126.011C197.613 122.023 192.942 118.966 186.588 116.441C181.356 114.447 177.058 112.054 177.058 110.991C177.058 110.06 171.825 106.604 165.472 103.281C152.204 96.6353 137.815 86.1344 128.845 76.8298C125.481 73.3738 121.183 69.9179 119.127 69.1203C117.072 68.3228 101.375 67.7911 82.3139 67.7911C52.4145 67.7911 48.3033 68.0569 41.2022 70.5825Z" fill="#2862CC"/>
<path d="M185.093 106.339C178.926 108.067 179.674 109.662 189.017 113.516C199.482 117.903 206.396 123.619 208.826 130.398C211.255 136.778 209.573 138.24 194.81 141.696C172.76 147.013 162.482 153.659 149.961 171.471C143.795 180.243 137.815 196.726 137.815 204.967C137.815 212.544 143.234 227.697 148.466 235.007C155.007 244.046 170.891 254.547 186.027 259.598C197.24 263.32 198.922 263.453 214.058 262.788C224.149 262.389 236.296 260.794 246.2 258.535C269.746 253.218 275.165 250.825 279.65 244.312C291.61 226.5 288.433 182.503 274.044 166.951C268.438 161.103 253.488 151.798 237.417 144.221C232.745 142.095 229.382 139.569 229.382 138.107C229.382 136.778 234.427 132.657 241.155 128.803C254.983 120.694 257.786 116.972 252.741 112.985C247.882 109.263 238.165 108.2 230.503 110.858C222.094 113.649 221.159 113.649 213.871 108.997C208.452 105.674 205.836 105.009 198.361 105.142C193.315 105.142 187.336 105.674 185.093 106.339ZM205.088 108.997C208.639 110.725 196.492 110.725 191.073 108.997C188.083 108.067 189.017 107.801 194.81 107.801C198.922 107.801 203.593 108.332 205.088 108.997ZM246.948 113.782C248.629 114.181 249.937 115.51 249.937 116.707C249.937 119.232 238.912 127.606 235.548 127.606C231.25 127.606 232.932 125.214 238.725 122.688C246.013 119.764 245.826 117.504 238.351 115.112L232.185 113.251L238.165 113.118C241.341 112.985 245.266 113.384 246.948 113.782ZM199.108 147.412C188.831 150.336 182.664 153.792 170.704 163.362C161.36 170.806 159.866 170.407 165.845 162.166C170.517 155.786 180.048 150.469 192.568 147.412C205.275 144.221 210.321 144.354 199.108 147.412ZM150.335 199.65C149.774 200.713 149.214 200.315 149.214 198.853C149.027 197.39 149.588 196.593 150.148 197.125C150.709 197.523 150.896 198.72 150.335 199.65ZM150.896 208.024C150.896 210.816 154.072 216.93 159.305 223.975C165.659 232.615 166.78 235.007 163.977 233.944C158.744 231.95 152.578 225.304 149.774 218.392C146.785 211.214 146.224 201.511 149.027 202.707C150.148 203.106 150.896 205.632 150.896 208.024Z" fill="#2862CC"/>
</svg>
