<svg width="280" height="232" viewBox="0 0 280 232" fill="none" xmlns="http://www.w3.org/2000/svg">
<path d="M16.1317 1.99138C10.8313 4.62419 5.30041 10.4164 2.53498 16.4718L0 21.8691V115.992V210.115L2.53498 215.512C5.41564 221.699 10.9465 227.491 16.3621 230.124C21.893 232.625 258.107 232.625 263.638 230.124C269.053 227.491 274.584 221.699 277.465 215.512L280 210.115V115.992V21.8691L277.465 16.4718C274.584 10.2847 269.053 4.49255 263.638 1.85974C258.222 -0.641426 21.3169 -0.641426 16.1317 1.99138ZM262.025 12.6543C264.214 14.1023 266.979 16.9984 268.362 18.973C270.782 22.6589 270.782 23.1855 270.782 115.992C270.782 208.798 270.782 209.325 268.362 213.011C266.979 214.985 264.214 217.882 262.025 219.33C258.222 221.962 256.033 221.962 140 221.962C23.9671 221.962 21.7778 221.962 17.9753 219.33C15.786 217.882 13.0206 214.985 11.6379 213.011C9.21811 209.325 9.21811 208.403 8.87243 117.572C8.64198 32.137 8.7572 25.555 10.6008 21.3425C13.1358 15.9453 17.284 12.1277 22.5844 10.6796C24.7737 10.0214 78.5844 9.75816 142.305 9.75816C255.918 10.0214 258.222 10.0214 262.025 12.6543Z" fill="#2862CC"/>
<path d="M56.1154 75.5786C38.2553 95.9829 23.6216 113.623 23.6216 114.807C23.6216 117.572 30.7656 125.207 33.531 125.207C34.9138 125.207 45.8603 113.623 62.7985 94.2715C77.6627 77.2899 90.3376 63.3361 90.9138 63.3361C91.6051 63.3361 104.28 77.2899 119.259 94.2715C136.889 114.413 147.259 125.207 148.757 125.207C151.638 125.207 157.284 118.625 157.284 115.202C157.284 112.175 93.1031 38.3244 90.4529 38.3244C89.531 38.3244 74.0907 55.0427 56.1154 75.5786Z" fill="#2862CC"/>
<path d="M116.033 42.5348C115.226 43.4563 114.65 46.2208 114.65 48.8536C114.65 52.9344 115.802 54.7774 124.214 64.3871C129.399 70.3109 134.123 75.1816 134.584 75.1816C135.045 75.1816 135.391 68.468 135.391 60.1746C135.391 41.745 134.93 40.9551 124.56 40.9551C120.527 40.9551 116.839 41.6133 116.033 42.5348Z" fill="#2862CC"/>
<path d="M165.696 55.0426C163.506 55.9641 163.852 62.941 166.041 63.8625C167.078 64.2574 186.667 64.6523 209.597 64.6523C240.477 64.6523 251.654 64.2574 252.691 63.0727C254.65 60.8348 254.42 55.8324 252.23 54.911C250.041 53.9895 167.77 53.9895 165.696 55.0426Z" fill="#2862CC"/>
<path d="M63.1442 103.092L37.4487 132.448L37.6792 162.725L38.0249 193.003L54.0413 193.398C64.7574 193.661 70.5187 193.266 71.5557 192.213C72.8232 191.028 73.1689 186.026 73.1689 169.439C73.1689 154.564 73.6298 147.587 74.5516 146.534C76.28 144.559 103.934 144.296 106.585 146.27C107.967 147.192 108.428 151.931 108.889 170.229L109.465 193.003L125.482 193.398C136.198 193.661 141.959 193.266 142.996 192.213C144.264 191.028 144.609 184.973 144.609 162.199V133.764L118.338 103.75C103.934 87.2955 91.3747 73.8681 90.4528 73.8681C89.6463 73.8681 77.317 87.0322 63.1442 103.092Z" fill="#2862CC"/>
<path d="M164.198 94.9297C163.276 97.0359 163.506 98.0891 165.35 100.195C167.539 102.696 169.037 102.828 208.905 102.828C253.383 102.828 254.65 102.696 253.844 96.1145L253.498 92.9551L209.481 92.5602C166.502 92.2969 165.465 92.2969 164.198 94.9297Z" fill="#2862CC"/>
<path d="M165.35 131.789C163.506 133.895 163.276 134.948 164.198 137.054C165.465 139.687 166.502 139.687 209.481 139.424L253.498 139.029L253.844 135.87C254.65 129.288 253.383 129.156 208.905 129.156C169.037 129.156 167.539 129.288 165.35 131.789Z" fill="#2862CC"/>
<path d="M165.696 168.252C163.506 169.173 163.852 176.15 166.041 177.071C168.346 178.125 249.926 178.125 252.23 177.071C254.42 176.15 254.65 171.148 252.691 168.91C251.654 167.725 240.477 167.33 209.251 167.462C185.975 167.462 166.387 167.857 165.696 168.252Z" fill="#2862CC"/>
</svg>
