<svg width="52" height="51" viewBox="0 0 52 51" fill="none" xmlns="http://www.w3.org/2000/svg">
<path d="M23.888 38.7193H28.4937V45.5481H23.888V38.7193ZM35.4023 45.5481V50.1007H16.9794V45.5481H35.4023ZM44.6137 38.7193H7.76795C5.93625 38.7175 4.18009 37.9974 2.88487 36.7171C1.58966 35.4369 0.861204 33.701 0.859375 31.8904V6.85131C0.861204 5.04074 1.58966 3.30485 2.88487 2.02458C4.18009 0.744315 5.93625 0.0242688 7.76795 0.0224609H44.6137C46.4454 0.0242688 48.2016 0.744315 49.4968 2.02458C50.792 3.30485 51.5205 5.04074 51.5223 6.85131V31.8904C51.5205 33.701 50.792 35.4369 49.4968 36.7171C48.2016 37.9974 46.4454 38.7175 44.6137 38.7193ZM7.76795 4.57503C7.1572 4.57503 6.57146 4.81485 6.13959 5.24173C5.70772 5.66862 5.4651 6.2476 5.4651 6.85131V31.8904C5.4651 32.4941 5.70772 33.0731 6.13959 33.5C6.57146 33.9269 7.1572 34.1667 7.76795 34.1667H44.6137C45.2245 34.1667 45.8102 33.9269 46.2421 33.5C46.674 33.0731 46.9166 32.4941 46.9166 31.8904V6.85131C46.9166 6.2476 46.674 5.66862 46.2421 5.24173C45.8102 4.81485 45.2245 4.57503 44.6137 4.57503H7.76795Z" fill="#687EA6"/>
<path d="M35.4028 31.8902L30.9951 17.3675L28.4942 27.3376L25.4797 20.5088H24.7175L21.5856 29.6139L18.9212 20.3563L17.6915 22.7851H10.0713V20.5088H16.2683L19.2827 13.6799L21.7422 22.1318L23.0594 18.2325H26.9029L28.0244 20.4473L30.797 6.85107L35.4028 25.0613L36.8766 20.5088H42.3113V22.7851H38.5346L35.4028 31.8902Z" fill="#687EA6"/>
</svg>
