<svg width="58" height="57" viewBox="0 0 58 57" fill="none" xmlns="http://www.w3.org/2000/svg">
<path fill-rule="evenodd" clip-rule="evenodd" d="M39.1912 20.4106C39.1912 23.1161 38.1039 25.7108 36.1685 27.6239C34.2331 29.537 31.6081 30.6117 28.871 30.6117C26.1339 30.6117 23.5089 29.537 21.5735 27.6239C19.6381 25.7108 18.5508 23.1161 18.5508 20.4106C18.5508 17.7051 19.6381 15.1104 21.5735 13.1973C23.5089 11.2842 26.1339 10.2095 28.871 10.2095C31.6081 10.2095 34.2331 11.2842 36.1685 13.1973C38.1039 15.1104 39.1912 17.7051 39.1912 20.4106ZM34.0311 20.4106C34.0311 21.7633 33.4875 23.0607 32.5198 24.0172C31.5521 24.9738 30.2396 25.5112 28.871 25.5112C27.5025 25.5112 26.19 24.9738 25.2223 24.0172C24.2545 23.0607 23.7109 21.7633 23.7109 20.4106C23.7109 19.0578 24.2545 17.7605 25.2223 16.804C26.19 15.8474 27.5025 15.31 28.871 15.31C30.2396 15.31 31.5521 15.8474 32.5198 16.804C33.4875 17.7605 34.0311 19.0578 34.0311 20.4106Z" fill="#687EA6"/>
<path fill-rule="evenodd" clip-rule="evenodd" d="M28.8709 0.00830078C13.197 0.00830078 0.490234 12.5684 0.490234 28.0614C0.490234 43.5543 13.197 56.1145 28.8709 56.1145C44.5447 56.1145 57.2515 43.5543 57.2515 28.0614C57.2515 12.5684 44.5447 0.00830078 28.8709 0.00830078ZM5.65035 28.0614C5.65035 33.3915 7.48993 38.2982 10.5731 42.195C12.7384 39.3844 15.5317 37.1066 18.7349 35.5396C21.9382 33.9726 25.4645 33.1589 29.0386 33.1619C32.5663 33.1586 36.0484 33.9513 39.2193 35.4796C42.3902 37.0079 45.1664 39.2314 47.3363 41.9808C49.5718 39.0827 51.077 35.7 51.7273 32.1127C52.3776 28.5254 52.1544 24.8366 51.0761 21.3516C49.9978 17.8665 48.0954 14.6853 45.5264 12.0712C42.9573 9.45716 39.7955 7.48536 36.3024 6.31899C32.8093 5.15262 29.0855 4.8252 25.439 5.36382C21.7925 5.90244 18.3282 7.29162 15.3327 9.41642C12.3372 11.5412 9.89663 14.3405 8.21293 17.5828C6.52924 20.825 5.65081 24.4169 5.65035 28.0614ZM28.8709 51.0139C23.5403 51.0218 18.3707 49.2092 14.2368 45.8827C15.9007 43.5281 18.1155 41.6057 20.6926 40.279C23.2697 38.9522 26.1329 38.2604 29.0386 38.2625C31.908 38.2602 34.7366 38.9347 37.2894 40.2298C39.8422 41.525 42.0456 43.4035 43.7165 45.7093C39.5505 49.1438 34.2956 51.0214 28.8709 51.0139Z" fill="#687EA6"/>
</svg>
