<svg width="283" height="266" viewBox="0 0 283 266" fill="none" xmlns="http://www.w3.org/2000/svg">
<path d="M99.9225 4.2419C99.1146 6.51411 90.8737 27.8729 81.8248 51.6554C72.776 75.4379 64.3735 97.4026 63.0808 100.584L60.8186 106.491L65.8278 105.431C68.4132 104.825 74.3919 105.28 78.9163 106.34C89.2578 108.612 99.5994 117.55 102.508 126.941L104.609 133.455H120.606H136.764V120.731C136.764 111.339 137.411 107.552 139.188 106.189C141.127 104.674 142.097 104.674 144.036 106.189C145.813 107.552 146.459 111.339 146.459 120.731V133.455H189.28C212.871 133.455 232.1 133.304 232.1 133.001C232.1 132.698 220.789 102.856 207.054 66.8035C193.32 30.751 182.008 0.909318 182.008 0.606356C182.008 0.303395 174.252 0.303395 164.719 0.454876C148.237 0.909318 147.267 1.0608 146.783 4.2419C146.459 6.05967 145.167 8.33188 143.874 9.24077C140.966 11.6645 137.249 9.08929 136.441 4.2419C135.956 1.0608 134.987 0.909318 118.828 0.454876L101.538 0.000433013L99.9225 4.2419ZM146.136 32.8718C146.459 42.4151 145.975 45.5962 144.036 47.111C142.097 48.6258 141.127 48.6258 139.188 47.111C137.411 45.7477 136.764 42.1121 136.764 33.4777C136.764 20.9048 137.411 19.5415 142.42 20.1474C145.328 20.6018 145.652 21.8137 146.136 32.8718ZM145.652 76.6498V94.8275H141.612C137.572 94.8275 137.572 94.8275 137.087 78.316C136.926 69.0757 137.087 60.7443 137.572 59.5324C138.057 58.472 139.996 57.7146 141.935 58.0176C145.49 58.472 145.652 58.9265 145.652 76.6498Z" fill="#2862CC"/>
<path d="M59.0409 117.399C53.547 120.429 50.3152 124.973 47.2451 134.668L44.8213 142.545H70.6751C84.7331 142.545 96.3674 142.09 96.3674 141.485C96.3674 141.03 95.0747 136.94 93.6204 132.547C89.7423 120.883 84.0868 116.339 72.6142 115.733C66.4739 115.43 61.7879 116.036 59.0409 117.399Z" fill="#2862CC"/>
<path d="M125.292 145.423C121.575 148.149 121.414 149.21 121.414 166.63C121.414 189.201 121.737 189.655 139.027 190.716L151.307 191.473V224.95C151.307 262.972 151.953 265.244 161.81 265.244C171.667 265.244 172.313 262.972 172.313 224.799V191.019H202.207H232.1V224.799C232.1 262.972 232.747 265.244 242.603 265.244C252.46 265.244 253.107 262.972 253.107 224.95V191.473L265.387 190.716C282.677 189.655 283 189.201 283 166.63C283 149.21 282.838 148.149 279.122 145.423C275.567 142.696 271.851 142.545 202.207 142.545C132.563 142.545 128.847 142.696 125.292 145.423ZM150.499 156.329C142.905 178.597 142.258 179.657 137.087 180.112C134.179 180.415 131.917 180.415 131.917 179.96C131.917 179.506 138.865 159.813 140.804 154.966C141.127 154.057 143.713 153.148 146.459 153.148C150.822 153.148 151.307 153.603 150.499 156.329ZM170.697 154.209C170.697 154.815 168.758 160.874 166.335 167.842C161.972 180.112 161.81 180.415 156.801 180.415H151.469L156.478 166.782C161.002 153.754 161.487 153.148 166.011 153.148C168.597 153.148 170.697 153.603 170.697 154.209ZM190.896 156.329C183.301 178.597 182.655 179.657 177.484 180.112C174.576 180.415 172.313 180.415 172.313 179.96C172.313 179.506 179.262 159.813 181.201 154.966C181.524 154.057 184.109 153.148 186.856 153.148C191.219 153.148 191.704 153.603 190.896 156.329ZM211.094 154.209C211.094 154.815 209.155 160.874 206.731 167.842C202.368 180.112 202.207 180.415 197.198 180.415H191.865L196.874 166.782C201.399 153.754 201.884 153.148 206.408 153.148C208.993 153.148 211.094 153.603 211.094 154.209ZM231.292 156.329C223.698 178.597 223.051 179.657 217.881 180.112C214.972 180.415 212.71 180.415 212.71 179.96C212.71 179.506 219.658 159.813 221.597 154.966C221.92 154.057 224.506 153.148 227.253 153.148C231.616 153.148 232.1 153.603 231.292 156.329ZM251.491 154.209C251.491 154.815 249.552 160.874 247.128 167.842C242.765 180.112 242.603 180.415 237.594 180.415H232.262L237.271 166.782C241.796 153.754 242.28 153.148 246.805 153.148C249.39 153.148 251.491 153.603 251.491 154.209ZM271.689 156.329C264.094 178.597 263.448 179.657 258.277 180.112C255.369 180.415 253.107 180.415 253.107 179.96C253.107 179.506 260.055 159.813 261.994 154.966C262.317 154.057 264.902 153.148 267.649 153.148C272.012 153.148 272.497 153.603 271.689 156.329Z" fill="#2862CC"/>
<path d="M42.2362 153.148C40.6203 155.723 36.2575 170.114 37.0654 170.72C37.3886 171.174 52.9009 171.174 71.6449 171.023L105.416 170.568L102.508 161.025L99.4378 151.633H71.3217C54.6783 151.633 42.8825 152.239 42.2362 153.148Z" fill="#2862CC"/>
<path d="M30.925 188.29C29.6323 192.531 28.5012 197.076 28.5012 198.136C28.5012 199.651 36.9037 200.105 71.3216 200.105C94.9133 200.105 114.142 199.803 114.142 199.348C114.142 198.894 113.011 194.501 111.395 189.502L108.81 180.413H71.1601H33.5104L30.925 188.29Z" fill="#2862CC"/>
<path d="M21.5531 217.831C20.2604 222.678 19.4524 227.071 19.7756 227.677C20.2604 228.283 43.5288 228.889 71.4833 228.889C112.365 228.889 122.221 228.434 122.221 226.919C122.221 225.859 121.09 221.315 119.798 217.073L117.212 209.196H70.6753H24.1384L21.5531 217.831Z" fill="#2862CC"/>
<path d="M4.748 239.188C-1.06911 242.672 -1.71546 259.789 3.77848 264.031C5.87911 265.546 19.4524 266 70.5137 266C131.432 266 134.987 265.849 138.218 263.122C142.42 259.486 142.904 246.459 139.026 241.309L136.603 237.976H71.6448C35.9342 237.976 5.87911 238.582 4.748 239.188Z" fill="#2862CC"/>
</svg>
