<svg width="23" height="23" viewBox="0 0 23 23" fill="none" xmlns="http://www.w3.org/2000/svg">
<path d="M20.7784 22.6401L13.4602 15.3115C12.8068 15.835 12.0554 16.2494 11.206 16.5548C10.3565 16.8601 9.45265 17.0128 8.49432 17.0128C6.12027 17.0128 4.11125 16.1896 2.46727 14.5433C0.822424 12.8961 0 10.8838 0 8.5064C0 6.12897 0.822424 4.11666 2.46727 2.46947C4.11125 0.823158 6.12027 0 8.49432 0C10.8684 0 12.8778 0.823158 14.5227 2.46947C16.1666 4.11666 16.9886 6.12897 16.9886 8.5064C16.9886 9.4661 16.8362 10.3713 16.5312 11.2219C16.2263 12.0725 15.8125 12.825 15.2898 13.4794L22.6406 20.8407C22.8802 21.0806 23 21.3751 23 21.724C23 22.073 22.8693 22.3784 22.608 22.6401C22.3684 22.88 22.0634 23 21.6932 23C21.3229 23 21.018 22.88 20.7784 22.6401ZM8.49432 14.3954C10.1278 14.3954 11.5166 13.8231 12.6605 12.6785C13.8035 11.5329 14.375 10.1422 14.375 8.5064C14.375 6.87055 13.8035 5.47987 12.6605 4.33434C11.5166 3.18968 10.1278 2.61735 8.49432 2.61735C6.8608 2.61735 5.47208 3.18968 4.32818 4.33434C3.18515 5.47987 2.61364 6.87055 2.61364 8.5064C2.61364 10.1422 3.18515 11.5329 4.32818 12.6785C5.47208 13.8231 6.8608 14.3954 8.49432 14.3954Z" fill="#A3B4D4"/>
</svg>
