<svg width="41" height="40" viewBox="0 0 41 40" fill="none" xmlns="http://www.w3.org/2000/svg">
<path d="M36.8356 39.2441L24.1386 26.6937C23.0049 27.5901 21.7012 28.2998 20.2274 28.8228C18.7537 29.3457 17.1855 29.6072 15.5227 29.6072C11.4038 29.6072 7.91815 28.1975 5.06586 25.3781C2.21206 22.5573 0.785156 19.1111 0.785156 15.0397C0.785156 10.9682 2.21206 7.52209 5.06586 4.70123C7.91815 1.88185 11.4038 0.472168 15.5227 0.472168C19.6417 0.472168 23.1281 1.88185 25.9819 4.70123C28.8342 7.52209 30.2603 10.9682 30.2603 15.0397C30.2603 16.6832 29.9958 18.2333 29.4668 19.6901C28.9377 21.1468 28.2198 22.4355 27.3128 23.5561L40.0665 36.1626C40.4822 36.5734 40.69 37.0777 40.69 37.6753C40.69 38.273 40.4633 38.7959 40.0098 39.2441C39.5942 39.655 39.0651 39.8605 38.4227 39.8605C37.7803 39.8605 37.2513 39.655 36.8356 39.2441ZM15.5227 25.1249C18.3569 25.1249 20.7663 24.1447 22.751 22.1845C24.7341 20.2227 25.7257 17.8411 25.7257 15.0397C25.7257 12.2382 24.7341 9.85663 22.751 7.89487C20.7663 5.93461 18.3569 4.95448 15.5227 4.95448C12.6886 4.95448 10.2792 5.93461 8.29453 7.89487C6.31138 9.85663 5.3198 12.2382 5.3198 15.0397C5.3198 17.8411 6.31138 20.2227 8.29453 22.1845C10.2792 24.1447 12.6886 25.1249 15.5227 25.1249Z" fill="#687EA6"/>
</svg>
