<svg width="217" height="217" viewBox="0 0 217 217" fill="none" xmlns="http://www.w3.org/2000/svg">
<path d="M108.405 52.4052C97.3294 52.4052 86.5024 55.6895 77.2932 61.8429C68.0841 67.9962 60.9064 76.7422 56.6679 86.9749C52.4294 97.2075 51.3204 108.467 53.4812 119.33C55.642 130.193 60.9754 140.171 68.8072 148.003C76.6389 155.835 86.6172 161.168 97.4801 163.329C108.343 165.49 119.603 164.381 129.835 160.142C140.068 155.904 148.814 148.726 154.967 139.517C161.121 130.308 164.405 119.481 164.405 108.405C164.405 93.553 158.505 79.3092 148.003 68.8072C137.501 58.3051 123.257 52.4052 108.405 52.4052ZM108.405 148.405C100.494 148.405 92.7603 146.059 86.1823 141.664C79.6044 137.269 74.4775 131.022 71.45 123.712C68.4225 116.403 67.6303 108.361 69.1737 100.602C70.7171 92.8423 74.5268 85.715 80.1209 80.1209C85.715 74.5268 92.8423 70.7171 100.602 69.1737C108.361 67.6303 116.403 68.4225 123.712 71.45C131.022 74.4775 137.269 79.6044 141.664 86.1823C146.059 92.7603 148.405 100.494 148.405 108.405C148.405 119.014 144.191 129.188 136.689 136.689C129.188 144.191 119.014 148.405 108.405 148.405ZM215.205 130.805L200.305 111.005C200.405 109.205 200.305 107.305 200.305 105.905L215.205 86.0051C215.946 85.0367 216.45 83.908 216.675 82.7097C216.901 81.5114 216.843 80.2768 216.505 79.1051C213.985 69.8857 210.323 61.0171 205.605 52.7052C204.996 51.6493 204.16 50.7424 203.157 50.0505C202.153 49.3585 201.008 48.899 199.805 48.7052L175.305 45.2052L171.605 41.5052L168.105 17.0052C167.911 15.8019 167.452 14.657 166.76 13.6537C166.068 12.6503 165.161 11.8139 164.105 11.2052C155.793 6.48702 146.925 2.82535 137.705 0.305154C136.533 -0.0325851 135.299 -0.0909102 134.101 0.134858C132.902 0.360627 131.774 0.864201 130.805 1.60516L111.005 16.4052H105.805L86.0051 1.60516C85.0367 0.864201 83.908 0.360627 82.7097 0.134858C81.5114 -0.0909102 80.2768 -0.0325851 79.1051 0.305154C69.8857 2.82535 61.0171 6.48702 52.7052 11.2052C51.6493 11.8139 50.7424 12.6503 50.0505 13.6537C49.3585 14.657 48.899 15.8019 48.7052 17.0052L45.2052 41.5052L41.5052 45.2052L17.0052 48.7052C15.8019 48.899 14.657 49.3585 13.6537 50.0505C12.6503 50.7424 11.8139 51.6493 11.2052 52.7052C6.48702 61.0171 2.82535 69.8857 0.305154 79.1051C-0.0325851 80.2768 -0.0909102 81.5114 0.134858 82.7097C0.360627 83.908 0.864201 85.0367 1.60516 86.0051L16.5052 105.805V110.905L1.60516 130.805C0.864201 131.774 0.360627 132.902 0.134858 134.101C-0.0909102 135.299 -0.0325851 136.533 0.305154 137.705C2.82535 146.925 6.48702 155.793 11.2052 164.105C11.8139 165.161 12.6503 166.068 13.6537 166.76C14.657 167.452 15.8019 167.911 17.0052 168.105L41.5052 171.605L45.2052 175.305L48.7052 199.805C48.899 201.008 49.3585 202.153 50.0505 203.157C50.7424 204.16 51.6493 204.996 52.7052 205.605C61.0171 210.323 69.8857 213.985 79.1051 216.505C79.7877 216.703 80.4946 216.804 81.2052 216.805C82.9397 216.828 84.6311 216.264 86.0051 215.205L105.805 200.405H111.005L130.805 215.205C131.774 215.946 132.902 216.45 134.101 216.675C135.299 216.901 136.533 216.843 137.705 216.505C146.925 213.985 155.793 210.323 164.105 205.605C165.161 204.996 166.068 204.16 166.76 203.157C167.452 202.153 167.911 201.008 168.105 199.805L171.605 175.205C172.805 174.005 174.205 172.705 175.205 171.605L199.805 168.105C201.008 167.911 202.153 167.452 203.157 166.76C204.16 166.068 204.996 165.161 205.605 164.105C210.323 155.793 213.985 146.925 216.505 137.705C216.843 136.533 216.901 135.299 216.675 134.101C216.45 132.902 215.946 131.774 215.205 130.805ZM193.505 152.805L170.205 156.105C168.406 156.4 166.755 157.278 165.505 158.605C164.305 159.905 160.605 163.705 158.805 165.305C157.345 166.56 156.386 168.3 156.105 170.205L152.805 193.505C147.824 196.164 142.6 198.341 137.205 200.005L118.305 185.805C116.784 184.669 114.896 184.135 113.005 184.305H103.805C101.914 184.135 100.026 184.669 98.5051 185.805L79.6051 200.005C74.2099 198.341 68.9862 196.164 64.0051 193.505L60.7052 170.205C60.4242 168.3 59.4656 166.56 58.0052 165.305C55.6912 163.291 53.5193 161.119 51.5052 158.805C50.25 157.345 48.5102 156.386 46.6052 156.105L23.3052 152.805C20.6883 147.804 18.5134 142.585 16.8052 137.205L31.0052 118.305C32.0348 116.84 32.593 115.096 32.6052 113.305C32.5052 111.505 32.4052 106.305 32.5052 103.805C32.6758 101.914 32.1416 100.026 31.0052 98.5051L16.8052 79.6051C18.5134 74.2258 20.6883 69.0059 23.3052 64.0051L46.6052 60.7052C48.5102 60.4242 50.25 59.4656 51.5052 58.0052C53.5193 55.6912 55.6912 53.5193 58.0052 51.5052C59.4656 50.25 60.4242 48.5102 60.7052 46.6052L64.0051 23.3052C69.0059 20.6883 74.2258 18.5134 79.6051 16.8052L98.5051 31.0052C100.026 32.1416 101.914 32.6758 103.805 32.5052C106.805 32.4052 110.005 32.4052 113.005 32.5052C114.896 32.6758 116.784 32.1416 118.305 31.0052L137.205 16.8052C142.6 18.4698 147.824 20.6464 152.805 23.3052L156.105 46.6052C156.386 48.5102 157.345 50.25 158.805 51.5052C161.119 53.5193 163.291 55.6912 165.305 58.0052C166.56 59.4656 168.3 60.4242 170.205 60.7052L193.505 64.0051C196.164 68.9862 198.341 74.2099 200.005 79.6051L185.805 98.5051C184.776 99.9702 184.217 101.715 184.205 103.505C184.305 105.305 184.405 110.505 184.305 113.005C184.135 114.896 184.669 116.784 185.805 118.305L200.005 137.205C198.341 142.6 196.164 147.824 193.505 152.805Z" fill="#687EA6"/>
</svg>
