<svg width="312" height="282" viewBox="0 0 312 282" fill="none" xmlns="http://www.w3.org/2000/svg">
<path d="M5.68823 0.454404C3.6514 1.03454 1.05907 3.57822 0.503571 5.63102C-0.190803 7.90694 -0.144512 21.027 0.503571 22.4104C0.781321 23.0352 1.52199 23.7492 2.17007 24.0169C2.91074 24.3739 10.6414 24.5078 27.1213 24.5078H50.9614L52.1187 23.3922L53.276 22.2765L53.1372 13.6637L52.9983 5.00625L51.6558 3.35509C49.0172 -0.0364821 49.0172 -0.0364821 26.8435 0.00814394C16.0113 0.00814394 6.47519 0.231274 5.68823 0.454404Z" fill="#2862CC"/>
<path d="M151.831 0.677534C149.702 1.57005 148.683 2.5072 147.619 4.51537C146.832 5.9434 146.739 7.19293 146.739 14.2438C146.739 22.2319 146.739 22.3211 147.896 23.3922L149.007 24.5078H173.264C196.965 24.5078 197.521 24.5078 198.493 23.6153C199.928 22.2765 200.067 21.384 199.882 13.0389C199.743 6.1219 199.65 5.40789 198.678 3.89061C198.076 2.99809 196.827 1.79318 195.901 1.21305C194.188 0.186648 194.188 0.186648 173.82 0.0973959C156.414 0.00814394 153.22 0.0973959 151.831 0.677534Z" fill="#2862CC"/>
<path d="M58.4607 3.13374C57.8126 3.75851 58.1829 13.2638 58.8773 14.1117C59.2013 14.4687 62.3954 14.6919 69.5706 14.7811L79.8937 14.915L82.9489 16.3877C86.2819 17.9496 88.6891 20.2701 90.263 23.3939C91.1888 25.2236 91.1888 26.1161 91.1888 90.6899V156.156H97.6697H104.15L104.243 90.6453L104.382 25.179L105.493 22.9923C107.021 20.047 109.705 17.5479 112.9 16.0753C115.492 14.915 115.585 14.915 128.083 14.7811C137.11 14.6919 140.767 14.4687 141.091 14.1117C141.323 13.7994 141.647 11.3449 141.786 8.57811C141.971 4.69565 141.924 3.49075 141.415 3.08912C140.999 2.73211 136.462 2.64286 126.278 2.73211L111.742 2.86599L108.27 4.51715C106.372 5.40967 103.456 7.28396 101.743 8.62274C99.938 10.0954 98.1789 11.1218 97.5308 11.1218C96.929 11.1218 95.8643 10.497 95.0773 9.73839C92.9479 7.59634 87.9947 4.6064 84.8469 3.58C82.2083 2.73211 80.9121 2.64286 70.4502 2.64286C62.5806 2.64286 58.7847 2.82136 58.4607 3.13374Z" fill="#2862CC"/>
<path d="M15.4093 30.0855C15.039 31.0226 16.1963 32.1829 19.0663 33.6556C22.3993 35.396 27.3525 35.7084 31.0096 34.3696C34.25 33.2093 36.8423 31.2011 36.4257 30.1747C36.1479 29.5053 35.0369 29.4161 25.9175 29.4161C17.1684 29.4161 15.687 29.5053 15.4093 30.0855Z" fill="#2862CC"/>
<path d="M161.737 29.9529C161.228 30.7562 164.978 33.7015 167.616 34.5494C170.81 35.5758 175.903 35.308 178.68 34.0139C181.134 32.809 183.448 30.8901 183.17 30.176C182.939 29.4174 162.2 29.1943 161.737 29.9529Z" fill="#2862CC"/>
<path d="M118.362 49.4082C117.714 50.0776 117.575 51.2379 117.575 55.9236C117.575 59.0474 117.806 61.9927 118.038 62.4836C118.501 63.2869 119.103 63.3315 128.453 63.3315C139.98 63.3315 139.332 63.5993 139.332 58.5565C139.332 54.8972 138.221 52.3089 136.045 50.747C133.546 48.9619 131.74 48.6049 125.213 48.6049C119.89 48.6049 119.01 48.6942 118.362 49.4082Z" fill="#2862CC"/>
<path d="M213.306 49.0537C211.177 49.6784 209.14 51.3296 208.26 53.2485C207.242 55.3906 207.011 61.906 207.936 62.7985C208.353 63.2001 212.843 63.334 225.296 63.334H242.1L242.609 62.0845C243.257 60.4779 242.84 54.8997 241.914 53.1593C240.942 51.3742 238.72 49.6338 236.637 49.0537C234.647 48.5182 215.158 48.5182 213.306 49.0537Z" fill="#2862CC"/>
<path d="M143.869 51.5501C143.452 51.9072 143.961 57.0391 144.471 58.0209C144.795 58.6457 145.952 58.7796 151.738 58.9134C157.988 59.0919 158.775 59.1812 160.858 60.2522C163.496 61.5464 165.95 64.3578 166.644 66.9015C166.968 68.0618 167.107 83.19 167.107 112.866C167.061 146.202 167.2 157.269 167.616 157.76C167.94 158.162 169.098 158.385 170.857 158.385C173.033 158.385 173.634 158.206 174.051 157.537C174.375 156.957 174.514 141.918 174.514 111.974C174.514 62.7066 174.329 65.6073 177.43 62.5281C180.532 59.3597 181.55 59.1366 191.966 58.9581C199.511 58.8242 201.409 58.6457 201.872 58.1102C202.196 57.7532 202.474 56.1466 202.474 54.4955L202.52 51.5055H193.031H183.541L179.837 53.2013C177.801 54.1385 175.532 55.3434 174.745 55.9235C172.292 57.7085 171.829 57.7085 168.681 55.7004C167.061 54.674 164.422 53.3352 162.848 52.6658C160.163 51.5948 159.33 51.5055 152.062 51.3716C147.711 51.2824 144.054 51.3716 143.869 51.5501Z" fill="#2862CC"/>
<path d="M118.64 67.2161C117.899 67.4838 117.853 70.6523 118.501 71.8572C118.918 72.5266 119.519 72.7051 121.788 72.7051C124.936 72.7051 127.389 71.8572 129.287 70.1614C130.676 68.8226 130.907 67.5731 129.796 67.1715C128.917 66.8591 119.473 66.8591 118.64 67.2161Z" fill="#2862CC"/>
<path d="M215.852 67.2146C214.88 67.5716 215.158 68.9104 216.547 70.1153C220.343 73.5515 225.805 73.9085 230.203 71.0078C232.378 69.5798 233.119 68.4195 232.332 67.527C231.915 67.0361 230.249 66.9022 224.092 66.9468C219.88 66.9468 216.13 67.0807 215.852 67.2146Z" fill="#2862CC"/>
<path d="M201.965 99.4795C200.483 100.06 199.928 101.443 200.067 104.076L200.206 106.396H209.927H219.648L219.787 103.897C219.88 101.979 219.741 101.175 219 100.327C218.121 99.301 217.935 99.2563 210.529 99.1671C206.409 99.1224 202.52 99.2563 201.965 99.4795Z" fill="#2862CC"/>
<path d="M222.565 100.192C222.426 100.415 222.426 101.486 222.611 102.601L222.889 104.61L227.286 104.833C232.517 105.101 234.6 106.082 236.221 109.028C237.239 110.857 237.239 111.036 237.332 134.955C237.424 148.209 237.47 159.41 237.47 159.812C237.47 160.481 237.887 160.615 239.739 160.615C241.359 160.615 242.1 160.437 242.285 159.901C242.424 159.5 242.563 148.611 242.563 135.625C242.563 120.05 242.748 111.616 243.072 110.768C243.674 109.251 245.618 107.198 247.284 106.35C248.118 105.948 250.108 105.725 253.441 105.725C258.765 105.725 258.487 105.859 258.95 102.691L259.228 100.816H253.765C247.284 100.816 244.877 101.441 242.053 103.896L240.063 105.591L238.72 104.074C236.221 101.307 233.304 100.236 227.703 100.013C224.972 99.9239 222.657 99.9685 222.565 100.192Z" fill="#2862CC"/>
<path d="M262.699 100.952C261.774 101.71 261.403 102.514 261.218 104.076C260.801 107.512 260.801 107.512 271.032 107.512C275.985 107.512 280.29 107.378 280.707 107.244C281.262 107.021 281.447 106.351 281.447 104.522C281.447 102.558 281.216 101.933 280.29 101.041C279.179 99.9253 279.04 99.9253 271.541 99.9253C264.273 99.9253 263.857 99.9699 262.699 100.952Z" fill="#2862CC"/>
<path d="M204.835 109.297C203.909 110.725 206.27 114.161 208.677 114.875C211.223 115.589 214.834 113.179 214.926 110.546L215.019 109.073L210.066 108.94C206.964 108.85 205.02 108.984 204.835 109.297Z" fill="#2862CC"/>
<path d="M266.68 109.698C265.755 110.278 266.403 112.956 267.745 114.161C270.8 116.927 275.383 115.633 276.587 111.706C277.096 109.877 275.8 109.296 271.356 109.296C269.134 109.296 267.051 109.475 266.68 109.698Z" fill="#2862CC"/>
<path d="M300.658 160.573C296.076 162.447 283.669 167.49 273.115 171.774C262.56 176.013 253.534 179.806 253.117 180.163C252.376 180.744 252.284 181.815 252.284 189.446C252.284 198.773 252.099 199.442 249.738 199.442C247.377 199.442 247.192 198.46 247.192 185.608C247.192 176.95 247.053 173.603 246.636 173.202C245.849 172.443 233.721 172.443 232.934 173.202C232.61 173.514 232.378 175.076 232.378 176.995V180.253H236.683C241.359 180.253 242.1 180.565 242.1 182.529C242.1 184.492 240.618 185.162 236.221 185.162H232.378V194.89C232.378 202.967 232.239 204.752 231.638 205.6C230.712 206.85 228.444 206.939 227.749 205.734C227.518 205.243 227.286 202.164 227.286 198.862C227.286 193.507 227.194 192.793 226.36 192.079C225.805 191.588 225.064 191.409 224.416 191.543C222.703 191.989 191.271 205.065 190.484 205.69C189.929 206.136 189.79 207.787 189.79 215.552C189.79 224.299 189.744 224.923 188.864 225.771C187.707 226.887 186.457 226.932 185.485 225.861C184.791 225.102 184.698 222.826 184.698 202.075C184.698 184.805 184.559 178.959 184.142 178.557C183.355 177.798 158.265 177.798 157.478 178.557C157.108 178.914 156.923 180.922 156.923 184.581V190.07H165.024C172.523 190.07 173.218 190.16 174.051 190.963C175.162 192.034 175.208 192.659 174.236 193.998C173.542 194.935 173.31 194.979 165.209 194.979H156.923V218.319C156.923 243.622 156.923 243.622 154.423 243.622C152.062 243.622 151.831 242.729 151.831 233.268C151.831 228.449 151.692 224.165 151.553 223.763C151.368 223.361 150.72 222.826 150.118 222.603C149.146 222.246 146.785 223.094 135.721 227.556C128.454 230.457 122.297 233.09 122.019 233.358C121.695 233.67 121.464 237.82 121.371 245.317C121.232 255.091 121.14 256.876 120.491 257.545C119.519 258.571 118.362 258.571 117.436 257.545C116.742 256.786 116.649 254.466 116.649 233.224V209.706H112.576C108.039 209.706 106.465 209.081 106.465 207.251C106.465 205.243 107.53 204.797 112.298 204.797H116.696L116.557 196.05L116.418 187.304L115.122 186.233L113.825 185.162H96.2346H78.5975L77.2551 186.456L75.9126 187.75V196.273V204.797H87.0689C93.8275 204.797 98.5492 204.976 99.1047 205.243C100.355 205.913 100.262 208.099 98.9658 208.992C98.0863 209.572 96.142 209.706 86.93 209.706H75.9126V240.721V271.736L74.8016 272.405C73.5517 273.209 71.6075 272.718 71.0983 271.513C70.9594 271.111 70.8205 267.497 70.8205 263.436C70.8205 256.206 70.8205 256.117 69.7095 255.448C68.6448 254.734 67.6264 255.135 40.6384 266.247C12.7708 277.761 11.3358 278.43 12.8171 279.769C13.0023 279.992 24.8529 280.349 39.1107 280.617C53.3686 280.884 69.8484 281.197 75.6811 281.331C81.5602 281.464 90.9111 281.598 96.5124 281.688L106.697 281.777L133.083 268.344C207.52 230.457 205.575 231.394 206.872 231.84C208.399 232.376 208.77 234.607 207.52 235.678C207.057 236.035 187.753 245.942 164.561 257.679C141.415 269.415 122.204 279.278 121.88 279.679C121.464 280.126 121.464 280.572 121.788 281.152C122.204 281.955 123.547 282 156.599 282C176.273 282 191.595 281.821 192.429 281.598C193.725 281.241 214.88 266.916 301.584 207.876C308.111 203.414 310.611 201.495 311.213 200.334C311.907 198.996 312 197.702 311.907 191.231C311.768 184.983 311.63 183.6 311.028 183.243C310.287 182.796 309.685 183.109 257.237 210.197C246.868 215.597 237.98 219.97 237.517 219.97C237.054 219.97 236.313 219.568 235.85 219.077C233.767 216.846 233.212 217.203 272.884 196.72C293.9 185.876 310.38 177.129 310.982 176.46C311.954 175.344 312 174.942 312 166.91C312 159.368 311.907 158.431 311.167 157.806C310.704 157.36 310.009 157.047 309.639 157.092C309.269 157.092 305.241 158.654 300.658 160.573ZM230.712 220.372C231.175 220.862 231.452 221.755 231.36 222.424C231.221 223.495 230.295 224.12 223.49 227.646C215.297 231.885 214.278 232.108 213.306 229.966C212.936 229.163 212.936 228.717 213.445 228.003C214.139 227.021 227.934 219.613 229.184 219.568C229.601 219.524 230.295 219.925 230.712 220.372Z" fill="#2862CC"/>
<path d="M85.7728 160.929C83.5971 161.331 83.3193 162.491 83.3193 170.657C83.3193 176.816 83.4582 178.467 84.06 179.27C84.7544 180.252 84.847 180.252 97.4383 180.252C110.03 180.252 110.122 180.252 110.817 179.27C111.418 178.467 111.557 176.816 111.557 170.613C111.557 159.947 112.807 160.84 98.2715 160.795C91.9759 160.75 86.3283 160.84 85.7728 160.929Z" fill="#2862CC"/>
<path d="M162.2 163.874C162.108 164.186 162.061 166.373 162.108 168.693L162.247 172.888L170.301 173.022C175.949 173.111 178.541 172.977 179.004 172.62C179.467 172.219 179.606 171.059 179.513 167.801L179.375 163.517L170.903 163.383C164.145 163.294 162.432 163.383 162.2 163.874Z" fill="#2862CC"/>
<path d="M235.017 163.562C234.369 164.231 234.693 167.667 235.434 167.935C236.498 168.337 243.627 168.247 244.322 167.801C244.738 167.578 244.877 166.73 244.785 165.48L244.646 163.517L239.97 163.383C237.424 163.338 235.202 163.383 235.017 163.562Z" fill="#2862CC"/>
</svg>
