<svg width="292" height="248" viewBox="0 0 292 248" fill="none" xmlns="http://www.w3.org/2000/svg">
<path d="M94.2264 1.07353C88.366 2.68309 82.5715 5.96928 77.8964 10.3285C66.505 20.9918 58.5375 36.7521 54.5867 56.8045C52.5455 66.9984 52.0846 86.5814 53.5991 97.2447C54.8501 105.829 57.2865 116.023 58.0766 116.023C58.34 116.023 58.6034 115.755 58.6034 115.486C58.6034 115.151 59.6569 113.743 60.9739 112.401L63.3443 109.92L62.2908 105.427C60.1179 96.0375 59.7228 91.8795 59.6569 80.4785C59.5911 68.0714 60.1837 62.9745 62.9493 52.3782C66.4391 39.0994 72.5629 27.8995 80.5303 20.3212C98.4405 3.28668 121.553 10.2614 134.459 36.5509C148.418 64.9194 146.772 106.164 130.705 130.777C127.15 136.277 119.643 143.587 115.363 145.8C110.951 148.08 105.618 149.555 101.93 149.555C99.0332 149.555 98.6381 149.757 97.9796 151.366C97.5845 152.439 97.2553 154.719 97.1895 156.597L97.1236 159.95L100.943 160.152C118.721 161.091 136.105 144.458 144.994 118.035C149.472 104.622 151.118 91.9466 150.591 75.4486C149.669 48.6897 141.504 26.5582 127.084 12.0051C117.338 2.14657 105.157 -1.94439 94.2264 1.07353Z" fill="#2862CC"/>
<path d="M131.693 5.76938C144.401 18.1093 153.027 36.2169 156.649 58.3483C163.168 97.8496 151.776 138.022 128.467 157.806L125.503 160.287H138.343C156.781 160.287 161.982 158.543 171.991 149.02C184.502 137.016 192.93 117.298 195.63 93.8928C196.815 83.3636 196.025 66.1279 193.984 55.934C188.782 30.8517 176.864 11.604 161.719 4.02569C154.739 0.538314 151.644 0.00179371 137.487 0.00179371H125.701L131.693 5.76938Z" fill="#2862CC"/>
<path d="M94.4897 20.1208C81.5838 25.3519 71.6409 42.4534 68.0194 65.3897C66.7024 74.041 67.1634 92.9534 68.9412 100.934L70.1265 106.299L90.473 106.5C101.733 106.568 111.083 106.433 111.346 106.165C111.61 105.83 111.281 102.275 110.622 98.2515C109.766 93.1546 109.371 87.5882 109.305 80.3451C109.305 63.1094 112.202 49.7635 118.853 36.1493L121.882 30.0464L118.194 26.3578C111.281 19.5172 101.93 17.1029 94.4897 20.1208Z" fill="#2862CC"/>
<path d="M188.321 19.0493C188.321 19.1835 189.638 21.799 191.284 24.884C203.137 47.6861 206.956 78.4018 201.359 106.301C199.449 115.891 196.025 126.018 191.877 134.066C189.901 137.956 188.321 141.175 188.321 141.309C188.321 141.443 205.309 141.443 226.051 141.376L263.715 141.175L267.139 139.23C275.765 134.334 283.074 124.14 287.288 110.995C295.453 85.6449 292.819 55.0632 280.835 35.212C277.346 29.5115 271.551 23.6768 266.613 21.0613L263.057 19.1164L225.722 18.9152C205.112 18.8481 188.321 18.8481 188.321 19.0493Z" fill="#2862CC"/>
<path d="M123.528 43.8622C117.075 59.2871 115.034 79.809 118.26 98.2519C119.841 106.97 119.511 106.635 126.36 106.635C130.244 106.635 132.417 106.367 132.878 105.763C134.195 104.221 135.776 93.5573 136.105 84.0341C136.5 73.3037 135.644 64.5853 133.339 55.3303C131.561 48.4897 127.742 38.7652 126.689 38.4299C126.294 38.2958 124.845 40.7101 123.528 43.8622Z" fill="#2862CC"/>
<path d="M70.4558 114.75C69.5339 115.152 68.0853 116.091 67.2952 116.896C63.8053 120.182 63.8711 119.377 63.8711 157.872V193.752L61.1056 194.557C56.8256 195.697 54.1917 197.307 48.068 202.538C41.6809 207.97 37.5325 209.647 32.1331 209.043C28.4457 208.574 23.7706 206.159 20.4124 203.007C13.8278 196.77 8.09912 193.819 2.63386 193.819H0V197.441V200.995L3.68741 201.733C7.6382 202.605 9.41606 203.678 15.4739 208.909C22.8487 215.28 26.2069 216.688 33.911 216.688C41.4833 216.688 45.3683 215.079 53.1382 208.507C57.8791 204.55 60.3154 202.94 63.0151 202.135C69.7315 200.123 75.0651 201.934 82.6374 208.641C88.1685 213.603 93.0412 216.018 98.4406 216.554C106.803 217.426 112.334 215.548 119.511 209.378C125.964 203.812 128.072 202.538 131.956 201.8C137.092 200.727 141.702 201.867 145.85 205.22C157.505 214.676 160.731 216.487 166.131 216.554L169.226 216.621V212.933C169.226 209.781 169.028 209.244 168.04 209.244C164.353 209.244 160.073 207.031 154.41 202.135C147.035 195.697 144.204 194.423 136.895 193.953C127.808 193.484 123.462 195.362 114.771 203.275C110.095 207.635 107.001 208.909 101.404 208.842C97.9797 208.842 95.7409 208.439 94.1606 207.635C89.2221 205.019 89.5513 207.232 89.5513 178.394C89.5513 149.556 89.683 148.685 93.8972 143.655C97.4529 139.362 102.194 137.351 109.634 136.948C113.783 136.747 116.153 136.345 116.614 135.741C117.273 134.936 115.495 134.802 105.881 134.802C95.1483 134.802 94.1606 134.936 91.5267 136.345C86.1931 139.228 86.259 138.625 86.259 171.084C86.259 186.777 86.0614 199.788 85.8639 200.056C85.6663 200.258 83.8885 199.319 81.9131 197.977L78.2915 195.496L78.4891 167.999C78.6866 141.106 78.7525 140.436 80.1352 137.753C82.5057 133.26 84.7445 130.979 88.7611 128.967C92.5144 127.09 92.6461 127.09 108.647 126.754C122.277 126.486 124.779 126.285 124.977 125.413C125.108 124.541 122.475 124.474 103.247 124.742C78.95 125.145 79.2134 125.078 76.382 129.772C75.1309 131.851 75.0651 132.991 75.0651 162.835C75.0651 179.803 74.8675 193.886 74.6041 194.02C74.2749 194.155 72.497 194.155 70.6533 193.953L67.1635 193.685V163.372C67.1635 127.894 67.1635 128.029 72.6287 122.395C78.2257 116.762 78.6208 116.695 106.079 116.695C126.886 116.695 129.652 116.56 129.981 115.621C130.179 115.018 130.376 114.414 130.376 114.28C130.376 113.677 72.0361 114.146 70.4558 114.75Z" fill="#2862CC"/>
<path d="M0.329304 224.2C0.065918 224.736 7.14362e-05 226.48 0.131765 228.09C0.329304 230.973 0.395151 231.04 2.96317 231.443C6.84811 231.979 9.67951 233.589 14.8155 238.149C22.9805 245.459 30.0919 247.807 38.9154 246.13C43.9197 245.258 48.8582 242.374 53.9942 237.479C58.4059 233.254 62.6201 231.376 67.822 231.376C73.3531 231.376 75.987 232.65 82.6375 238.418C90.2098 244.99 93.568 246.465 101.404 246.465C107.067 246.465 108.054 246.264 111.939 244.386C114.31 243.246 118.326 240.43 120.828 238.082C126.755 232.65 129.454 231.376 135.249 231.376C140.977 231.376 143.809 232.65 149.867 238.216C155.069 242.844 160.731 245.862 165.802 246.532L169.226 247.002V242.844V238.753H167.119C163.892 238.686 159.612 236.473 155.135 232.449C146.838 225.139 141.438 222.859 133.273 223.529C127.15 223.999 122.804 226.078 116.285 231.778C109.832 237.345 106.935 238.753 101.404 238.753C95.9385 238.753 93.1071 237.412 87.2467 232.114C84.6787 229.833 80.7279 227.017 78.3574 225.809C74.4725 223.865 73.6165 223.663 67.822 223.663C62.0934 223.663 61.1715 223.865 57.2207 225.809C54.8502 227.017 50.8336 229.833 48.3314 232.114C42.4052 237.412 40.7591 238.216 35.1621 238.619C31.0796 238.887 29.9602 238.686 26.9313 237.21C24.9559 236.339 22.0587 234.327 20.4125 232.784C14.1571 226.882 9.61367 224.334 3.95086 223.596C1.38285 223.261 0.59269 223.395 0.329304 224.2Z" fill="#2862CC"/>
</svg>
