<svg width="45" height="44" viewBox="0 0 45 44" fill="none" xmlns="http://www.w3.org/2000/svg">
<g clip-path="url(#clip0_909_390)">
<path d="M6.44336 31.1665C8.05215 33.9545 10.3669 36.2696 13.1546 37.8788C15.9424 39.4879 19.1048 40.3345 22.3237 40.3332C25.5426 40.3345 28.705 39.4879 31.4927 37.8788C34.2805 36.2696 36.5952 33.9545 38.204 31.1665M6.44336 12.8332C8.05215 10.0452 10.3669 7.73011 13.1546 6.12092C15.9424 4.51173 19.1048 3.6652 22.3237 3.66651C25.5426 3.6652 28.705 4.51173 31.4927 6.12092C34.2805 7.73011 36.5952 10.0452 38.204 12.8332" stroke="#2862CC" stroke-width="3" stroke-linecap="round" stroke-linejoin="round"/>
<path d="M6.44336 31.1665C8.05215 33.9545 10.3669 36.2696 13.1546 37.8788C15.9424 39.4879 19.1048 40.3345 22.3237 40.3332C25.5426 40.3345 28.705 39.4879 31.4927 37.8788C34.2805 36.2696 36.5952 33.9545 38.204 31.1665M6.44336 12.8332C8.05215 10.0452 10.3669 7.73011 13.1546 6.12092C15.9424 4.51173 19.1048 3.6652 22.3237 3.66651C25.5426 3.6652 28.705 4.51173 31.4927 6.12092C34.2805 7.73011 36.5952 10.0452 38.204 12.8332" stroke="#2862CC" stroke-width="3" stroke-linecap="round" stroke-linejoin="round"/>
<path d="M24.1572 40.2416C24.1572 40.2416 26.7386 36.8445 28.3647 31.1666M24.1572 3.7583C24.1572 3.7583 26.7386 7.15363 28.3647 12.8333M20.4906 40.2416C20.4906 40.2416 17.9092 36.8463 16.2831 31.1666M20.4906 3.7583C20.4906 3.7583 17.9092 7.15363 16.2831 12.8333M16.8239 18.3333L19.5739 27.5L22.3239 18.3333L25.0739 27.5L27.8239 18.3333M2.15723 18.3333L4.90723 27.5L7.65723 18.3333L10.4072 27.5L13.1572 18.3333M31.4906 18.3333L34.2406 27.5L36.9906 18.3333L39.7406 27.5L42.4906 18.3333" stroke="#2862CC" stroke-width="3" stroke-linecap="round" stroke-linejoin="round"/>
<path d="M24.1572 40.2416C24.1572 40.2416 26.7386 36.8445 28.3647 31.1666M24.1572 3.7583C24.1572 3.7583 26.7386 7.15363 28.3647 12.8333M20.4906 40.2416C20.4906 40.2416 17.9092 36.8463 16.2831 31.1666M20.4906 3.7583C20.4906 3.7583 17.9092 7.15363 16.2831 12.8333M16.8239 18.3333L19.5739 27.5L22.3239 18.3333L25.0739 27.5L27.8239 18.3333M2.15723 18.3333L4.90723 27.5L7.65723 18.3333L10.4072 27.5L13.1572 18.3333M31.4906 18.3333L34.2406 27.5L36.9906 18.3333L39.7406 27.5L42.4906 18.3333" stroke="#2862CC" stroke-width="3" stroke-linecap="round" stroke-linejoin="round"/>
</g>
<defs>
<clipPath id="clip0_909_390">
<rect width="44" height="44" fill="white" transform="translate(0.324219)"/>
</clipPath>
</defs>
</svg>
