<svg width="48" height="36" viewBox="0 0 48 36" fill="none" xmlns="http://www.w3.org/2000/svg">
<path d="M44 0H4C1.82 0.08 0.08 1.82 0 4V32C0.08 34.18 1.82 35.92 4 36H44C46.18 35.92 47.92 34.18 48 32V4C47.9632 2.95085 47.5299 1.95469 46.7876 1.21237C46.0453 0.470055 45.0491 0.0368109 44 0ZM44 32H4V4H44V32ZM28 28V25.5C28 22.18 21.32 20.5 18 20.5C14.68 20.5 8 22.18 8 25.5V28H28ZM18 8C16.6739 8 15.4021 8.52678 14.4645 9.46447C13.5268 10.4021 13 11.6739 13 13C13 13.6566 13.1293 14.3068 13.3806 14.9134C13.6319 15.52 14.0002 16.0712 14.4645 16.5355C15.4021 17.4732 16.6739 18 18 18C18.6566 18 19.3068 17.8707 19.9134 17.6194C20.52 17.3681 21.0712 16.9998 21.5355 16.5355C21.9998 16.0712 22.3681 15.52 22.6194 14.9134C22.8707 14.3068 23 13.6566 23 13C23 12.3434 22.8707 11.6932 22.6194 11.0866C22.3681 10.48 21.9998 9.92876 21.5355 9.46447C21.0712 9.00017 20.52 8.63188 19.9134 8.3806C19.3068 8.12933 18.6566 8 18 8ZM28 8V10H40V8H28ZM28 12V14H40V12H28ZM28 16V18H36V16H28Z" fill="#687EA6"/>
</svg>
