<svg width="23" height="16" viewBox="0 0 23 16" fill="none" xmlns="http://www.w3.org/2000/svg">
<path d="M0.346724 7.29309C-0.0600735 7.68361 -0.0600735 8.31677 0.346724 8.70729L6.97586 15.0713C7.38265 15.4618 8.04219 15.4618 8.44898 15.0713C8.85579 14.6807 8.85579 14.0476 8.44898 13.6571L2.55644 8.00019L8.44898 2.34333C8.85579 1.95281 8.85579 1.31965 8.44898 0.929123C8.04219 0.538599 7.38265 0.538599 6.97586 0.929123L0.346724 7.29309ZM21.9166 9.00019C22.4918 9.00019 22.9583 8.55247 22.9583 8.00019C22.9583 7.44791 22.4918 7.00019 21.9166 7.00019V9.00019ZM1.08329 9.00019H21.9166V7.00019H1.08329V9.00019Z" fill="#3D3B3B"/>
</svg>
