<svg width="24" height="17" viewBox="0 0 24 17" fill="none" xmlns="http://www.w3.org/2000/svg">
<path d="M1.74928 7.79569C1.12168 7.79569 0.612915 8.29937 0.612915 8.92069C0.612915 9.542 1.12168 10.0457 1.74928 10.0457V7.79569ZM23.0075 9.71617C23.4511 9.27684 23.4511 8.56453 23.0075 8.1252L15.7756 0.965737C15.3318 0.526395 14.6123 0.526395 14.1685 0.965737C13.7247 1.40508 13.7247 2.11739 14.1685 2.55672L20.5968 8.92069L14.1685 15.2847C13.7247 15.724 13.7247 16.4363 14.1685 16.8756C14.6123 17.315 15.3318 17.315 15.7756 16.8756L23.0075 9.71617ZM1.74928 10.0457H22.2038V7.79569H1.74928V10.0457Z" fill="white"/>
</svg>
