<svg width="58" height="58" viewBox="0 0 58 58" fill="none" xmlns="http://www.w3.org/2000/svg">
<path d="M45.675 49.0583L32.1417 35.525C30.9333 36.4917 29.5437 37.2569 27.9729 37.8208C26.4021 38.3847 24.7306 38.6667 22.9583 38.6667C18.5681 38.6667 14.8528 37.1466 11.8127 34.1064C8.77089 31.0646 7.25 27.3486 7.25 22.9583C7.25 18.5681 8.77089 14.852 11.8127 11.8103C14.8528 8.77008 18.5681 7.25 22.9583 7.25C27.3486 7.25 31.0646 8.77008 34.1064 11.8103C37.1466 14.852 38.6667 18.5681 38.6667 22.9583C38.6667 24.7306 38.3847 26.4021 37.8208 27.9729C37.2569 29.5438 36.4917 30.9333 35.525 32.1417L49.1187 45.7354C49.5618 46.1785 49.7833 46.7222 49.7833 47.3667C49.7833 48.0111 49.5417 48.575 49.0583 49.0583C48.6153 49.5014 48.0514 49.7229 47.3667 49.7229C46.6819 49.7229 46.1181 49.5014 45.675 49.0583ZM22.9583 33.8333C25.9792 33.8333 28.5473 32.7764 30.6627 30.6627C32.7764 28.5473 33.8333 25.9792 33.8333 22.9583C33.8333 19.9375 32.7764 17.3694 30.6627 15.254C28.5473 13.1402 25.9792 12.0833 22.9583 12.0833C19.9375 12.0833 17.3694 13.1402 15.254 15.254C13.1402 17.3694 12.0833 19.9375 12.0833 22.9583C12.0833 25.9792 13.1402 28.5473 15.254 30.6627C17.3694 32.7764 19.9375 33.8333 22.9583 33.8333Z" fill="black"/>
</svg>
