<svg width="48" height="48" viewBox="0 0 48 48" fill="none" xmlns="http://www.w3.org/2000/svg">
<path d="M22 36H26V42H22V36ZM32 42V46H16V42H32ZM40 36H8C6.40919 35.9984 4.88399 35.3658 3.75911 34.2409C2.63424 33.116 2.00159 31.5908 2 30V8C2.00159 6.40919 2.63424 4.88399 3.75911 3.75911C4.88399 2.63424 6.40919 2.00159 8 2H40C41.5908 2.00159 43.116 2.63424 44.2409 3.75911C45.3658 4.88399 45.9984 6.40919 46 8V30C45.9984 31.5908 45.3658 33.116 44.2409 34.2409C43.116 35.3658 41.5908 35.9984 40 36ZM8 6C7.46957 6 6.96086 6.21071 6.58579 6.58579C6.21071 6.96086 6 7.46957 6 8V30C6 30.5304 6.21071 31.0391 6.58579 31.4142C6.96086 31.7893 7.46957 32 8 32H40C40.5304 32 41.0391 31.7893 41.4142 31.4142C41.7893 31.0391 42 30.5304 42 30V8C42 7.46957 41.7893 6.96086 41.4142 6.58579C41.0391 6.21071 40.5304 6 40 6H8Z" fill="black"/>
<path d="M32 30L28.172 17.24L26 26L23.382 20H22.72L20 28L17.686 19.866L16.618 22H10V20H15.382L18 14L20.136 21.426L21.28 18H24.618L25.592 19.946L28 8L32 24L33.28 20H38V22H34.72L32 30Z" fill="black"/>
</svg>
