<svg width="31" height="31" viewBox="0 0 31 31" fill="none" xmlns="http://www.w3.org/2000/svg">
<path d="M15.3376 1C7.51428 1 1.17261 7.34242 1.17261 15.1667C1.17261 22.9909 7.51428 29.3333 15.3376 29.3333C23.1609 29.3333 29.5026 22.9909 29.5026 15.1667C29.5026 7.34242 23.1609 1 15.3376 1Z" stroke="black" stroke-width="1.5" stroke-linecap="round" stroke-linejoin="round"/>
<path d="M4.38959 24.1567C4.38959 24.1567 7.54697 20.1248 15.3377 20.1248C23.1285 20.1248 26.2873 24.1567 26.2873 24.1567M15.3377 15.1665C16.4648 15.1665 17.5456 14.7187 18.3426 13.9217C19.1395 13.1247 19.5872 12.0437 19.5872 10.9165C19.5872 9.78933 19.1395 8.70833 18.3426 7.9113C17.5456 7.11427 16.4648 6.6665 15.3377 6.6665C14.2107 6.6665 13.1298 7.11427 12.3329 7.9113C11.5359 8.70833 11.0882 9.78933 11.0882 10.9165C11.0882 12.0437 11.5359 13.1247 12.3329 13.9217C13.1298 14.7187 14.2107 15.1665 15.3377 15.1665Z" stroke="black" stroke-width="1.5" stroke-linecap="round" stroke-linejoin="round"/>
</svg>
